<svg width="83" height="82" viewBox="0 0 83 82" fill="none" xmlns="http://www.w3.org/2000/svg">
<g clip-path="url(#clip0_37_2012)">
<rect x="0.75" width="80" height="80" rx="32" fill="#F5F8F9"/>
<path d="M10.75 65.7625C10.75 56.9259 17.9134 49.7625 26.75 49.7625H54.75C63.5866 49.7625 70.75 56.9259 70.75 65.7625V93.7625C70.75 102.599 63.5866 109.762 54.75 109.762H26.75C17.9134 109.762 10.75 102.599 10.75 93.7625V65.7625Z" fill="#DFEEF4"/>
<circle cx="40.75" cy="28" r="16" fill="#DFEEF4"/>
</g>
<rect x="58.25" y="58" width="24" height="24" rx="12" fill="#0083B8"/>
<mask id="mask0_37_2012" style="mask-type:alpha" maskUnits="userSpaceOnUse" x="66" y="65" width="9" height="10">
<path d="M68.6423 73.5868L72.809 69.4201L70.8299 67.4409L66.6631 71.6077C66.6058 71.6651 66.565 71.737 66.5452 71.8157L66.0834 74.1666L68.4338 73.7048C68.5127 73.685 68.5849 73.6442 68.6423 73.5868ZM74.1542 68.0749C74.3223 67.9068 74.4167 67.6787 74.4167 67.4409C74.4167 67.2032 74.3223 66.9751 74.1542 66.8069L73.443 66.0958C73.2749 65.9277 73.0468 65.8333 72.809 65.8333C72.5712 65.8333 72.3432 65.9277 72.175 66.0958L71.4639 66.8069L73.443 68.7861L74.1542 68.0749Z" fill="#006FFD"/>
</mask>
<g mask="url(#mask0_37_2012)">
<rect x="65.25" y="65" width="10" height="10" fill="white"/>
</g>
<defs>
<clipPath id="clip0_37_2012">
<rect x="0.75" width="80" height="80" rx="32" fill="white"/>
</clipPath>
</defs>
</svg>
