<svg width="48" height="48" viewBox="0 0 48 48" fill="none" xmlns="http://www.w3.org/2000/svg">
<path opacity="0.2" d="M42.7688 22.7248L15.7875 6.22481C15.5604 6.08471 15.3 6.00773 15.0332 6.00183C14.7664 5.99593 14.5028 6.06132 14.2697 6.19124C14.0366 6.32117 13.8424 6.51093 13.7071 6.74096C13.5718 6.97099 13.5003 7.23294 13.5 7.49981V40.4998C13.5003 40.7667 13.5718 41.0286 13.7071 41.2587C13.8424 41.4887 14.0366 41.6785 14.2697 41.8084C14.5028 41.9383 14.7664 42.0037 15.0332 41.9978C15.3 41.9919 15.5604 41.9149 15.7875 41.7748L42.7688 25.2748C42.9903 25.1438 43.1739 24.9573 43.3014 24.7337C43.429 24.5102 43.496 24.2572 43.496 23.9998C43.496 23.7424 43.429 23.4895 43.3014 23.2659C43.1739 23.0423 42.9903 22.8558 42.7688 22.7248Z" fill="#0083B8"/>
<path d="M42.7688 22.7248L15.7875 6.22481C15.5604 6.08471 15.3 6.00773 15.0332 6.00183C14.7664 5.99593 14.5028 6.06132 14.2697 6.19124C14.0366 6.32117 13.8424 6.51093 13.7071 6.74096C13.5718 6.97099 13.5003 7.23294 13.5 7.49981V40.4998C13.5003 40.7667 13.5718 41.0286 13.7071 41.2587C13.8424 41.4887 14.0366 41.6785 14.2697 41.8084C14.5028 41.9383 14.7664 42.0037 15.0332 41.9978C15.3 41.9919 15.5604 41.9149 15.7875 41.7748L42.7688 25.2748C42.9903 25.1438 43.1739 24.9573 43.3014 24.7337C43.429 24.5102 43.496 24.2572 43.496 23.9998C43.496 23.7424 43.429 23.4895 43.3014 23.2659C43.1739 23.0423 42.9903 22.8558 42.7688 22.7248V22.7248Z" stroke="#0083B8" stroke-width="2" stroke-linecap="round" stroke-linejoin="round"/>
</svg>
