<svg width="48" height="48" viewBox="0 0 48 48" fill="none" xmlns="http://www.w3.org/2000/svg">
<path opacity="0.2" d="M31.5 12C31.5 7.85786 28.1421 4.5 24 4.5C19.8579 4.5 16.5 7.85786 16.5 12V24C16.5 28.1421 19.8579 31.5 24 31.5C28.1421 31.5 31.5 28.1421 31.5 24V12Z" fill="#0083B8"/>
<path d="M31.5 12C31.5 7.85786 28.1421 4.5 24 4.5C19.8579 4.5 16.5 7.85786 16.5 12V24C16.5 28.1421 19.8579 31.5 24 31.5C28.1421 31.5 31.5 28.1421 31.5 24V12Z" stroke="#0083B8" stroke-width="2" stroke-linecap="round" stroke-linejoin="round"/>
<path d="M24 37.5V43.5" stroke="#0083B8" stroke-width="2" stroke-linecap="round" stroke-linejoin="round"/>
<path d="M37.4247 25.5C37.0355 28.7872 35.4538 31.8174 32.9794 34.0162C30.505 36.2149 27.3099 37.4294 23.9997 37.4294C20.6895 37.4294 17.4944 36.2149 15.02 34.0162C12.5456 31.8174 10.9639 28.7872 10.5747 25.5" stroke="#0083B8" stroke-width="2" stroke-linecap="round" stroke-linejoin="round"/>
</svg>
