<svg width="32" height="32" viewBox="0 0 32 32" fill="none" xmlns="http://www.w3.org/2000/svg">
<path d="M28.725 11.2751C21.7125 4.2501 10.2875 4.2501 3.27505 11.2751C2.07194 12.4808 1.34882 14.0833 1.24071 15.7831C1.1326 17.483 1.64689 19.1642 2.68755 20.5126C2.87635 20.7494 3.11586 20.9408 3.38843 21.0728C3.66101 21.2047 3.95971 21.2739 4.26255 21.2751C4.51456 21.2731 4.76424 21.2266 5.00005 21.1376L10.925 18.7626C11.2326 18.6385 11.5044 18.4398 11.716 18.1845C11.9277 17.9292 12.0725 17.6253 12.1375 17.3001L12.875 13.6126C14.8864 12.9152 17.0734 12.9108 19.0875 13.6001L19.8625 17.3126C19.9284 17.6359 20.0737 17.9378 20.2854 18.191C20.4971 18.4441 20.7685 18.6406 21.075 18.7626L27 21.1376C27.4016 21.295 27.8431 21.3192 28.2594 21.2066C28.6758 21.0941 29.0449 20.8508 29.3125 20.5126C30.3532 19.1642 30.8675 17.483 30.7594 15.7831C30.6513 14.0833 29.9282 12.4808 28.725 11.2751Z" fill="white"/>
<path d="M27 24H5C4.73478 24 4.48043 24.1054 4.29289 24.2929C4.10536 24.4804 4 24.7348 4 25C4 25.2652 4.10536 25.5196 4.29289 25.7071C4.48043 25.8946 4.73478 26 5 26H27C27.2652 26 27.5196 25.8946 27.7071 25.7071C27.8946 25.5196 28 25.2652 28 25C28 24.7348 27.8946 24.4804 27.7071 24.2929C27.5196 24.1054 27.2652 24 27 24Z" fill="white"/>
</svg>
