<svg width="184" height="171" viewBox="0 0 184 171" fill="none" xmlns="http://www.w3.org/2000/svg">
<g filter="url(#filter0_ddd_733_2358)">
<rect x="60" y="58" width="64" height="64" rx="32" fill="#40AF6C" shape-rendering="crispEdges"/>
<path d="M102.834 94.1161L97.1979 91.7125C96.907 91.5822 96.5878 91.5281 96.2702 91.5555C95.9527 91.5828 95.6474 91.6906 95.3831 91.8688L92.3666 93.8758C90.5281 92.9829 89.0396 91.5028 88.1362 89.6695L90.1312 86.6169C90.3082 86.3523 90.4163 86.0478 90.4456 85.7309C90.475 85.4139 90.4248 85.0947 90.2995 84.8021L87.8839 79.1657C87.7153 78.7851 87.4299 78.4681 87.069 78.2606C86.7081 78.0532 86.2906 77.9661 85.8768 78.0119C84.2539 78.2245 82.7634 79.0193 81.6824 80.2483C80.6015 81.4774 80.0036 83.0572 80 84.694C80 94.2363 87.7637 102 97.306 102C98.9428 101.996 100.523 101.399 101.752 100.318C102.981 99.2366 103.775 97.7461 103.988 96.1232C104.034 95.7094 103.947 95.2919 103.739 94.931C103.532 94.5701 103.215 94.2847 102.834 94.1161Z" fill="white"/>
<path d="M95.0705 80.8122C96.534 81.212 97.8679 81.9865 98.9406 83.0593C100.013 84.132 100.788 85.4659 101.188 86.9294C101.241 87.1348 101.36 87.317 101.528 87.4474C101.695 87.5779 101.901 87.6492 102.113 87.6505C102.199 87.6503 102.283 87.6382 102.365 87.6144C102.488 87.5824 102.602 87.5264 102.703 87.4495C102.803 87.3727 102.887 87.2766 102.949 87.167C103.012 87.0573 103.052 86.9362 103.068 86.8108C103.083 86.6854 103.073 86.5582 103.038 86.4366C102.558 84.6444 101.614 83.0101 100.302 81.698C98.9898 80.3859 97.3555 79.4421 95.5633 78.9614C95.4378 78.9157 95.3043 78.8966 95.1711 78.9054C95.0379 78.9141 94.908 78.9505 94.7897 79.0122C94.6713 79.074 94.5671 79.1596 94.4837 79.2638C94.4002 79.368 94.3394 79.4884 94.3051 79.6174C94.2707 79.7464 94.2636 79.8811 94.2842 80.013C94.3048 80.1449 94.3526 80.271 94.4246 80.3834C94.4966 80.4958 94.5912 80.592 94.7024 80.6658C94.8136 80.7396 94.939 80.7895 95.0705 80.8122Z" fill="white"/>
<path d="M94.0731 84.5256C94.8866 84.7482 95.628 85.179 96.2244 85.7754C96.8208 86.3717 97.2515 87.1132 97.4742 87.9267C97.5254 88.1332 97.6444 88.3165 97.8122 88.4472C97.98 88.578 98.1869 88.6486 98.3996 88.6478C98.4811 88.6486 98.5622 88.6364 98.6399 88.6117C98.7632 88.581 98.8791 88.5259 98.9808 88.4497C99.0824 88.3734 99.1676 88.2775 99.2315 88.1677C99.2954 88.0579 99.3366 87.9363 99.3526 87.8103C99.3687 87.6842 99.3593 87.5563 99.325 87.4339C99.0215 86.2916 98.4214 85.2498 97.5857 84.4141C96.7499 83.5783 95.7081 82.9783 94.5658 82.6748C94.4404 82.6291 94.3069 82.61 94.1737 82.6188C94.0405 82.6275 93.9106 82.6639 93.7922 82.7256C93.6739 82.7873 93.5696 82.873 93.4862 82.9772C93.4028 83.0814 93.342 83.2018 93.3076 83.3308C93.2733 83.4598 93.2662 83.5945 93.2868 83.7264C93.3073 83.8583 93.3552 83.9844 93.4272 84.0968C93.4992 84.2092 93.5938 84.3054 93.705 84.3792C93.8162 84.453 93.9415 84.5028 94.0731 84.5256Z" fill="white"/>
</g>
<defs>
<filter id="filter0_ddd_733_2358" x="0" y="0" width="184" height="184" filterUnits="userSpaceOnUse" color-interpolation-filters="sRGB">
<feFlood flood-opacity="0" result="BackgroundImageFix"/>
<feColorMatrix in="SourceAlpha" type="matrix" values="0 0 0 0 0 0 0 0 0 0 0 0 0 0 0 0 0 0 127 0" result="hardAlpha"/>
<feOffset dy="2"/>
<feGaussianBlur stdDeviation="30"/>
<feComposite in2="hardAlpha" operator="out"/>
<feColorMatrix type="matrix" values="0 0 0 0 0.8125 0 0 0 0 0.946429 0 0 0 0 1 0 0 0 0.48 0"/>
<feBlend mode="normal" in2="BackgroundImageFix" result="effect1_dropShadow_733_2358"/>
<feColorMatrix in="SourceAlpha" type="matrix" values="0 0 0 0 0 0 0 0 0 0 0 0 0 0 0 0 0 0 127 0" result="hardAlpha"/>
<feOffset dy="10"/>
<feGaussianBlur stdDeviation="11.5"/>
<feComposite in2="hardAlpha" operator="out"/>
<feColorMatrix type="matrix" values="0 0 0 0 0.25098 0 0 0 0 0.686275 0 0 0 0 0.423529 0 0 0 0.22 0"/>
<feBlend mode="normal" in2="effect1_dropShadow_733_2358" result="effect2_dropShadow_733_2358"/>
<feColorMatrix in="SourceAlpha" type="matrix" values="0 0 0 0 0 0 0 0 0 0 0 0 0 0 0 0 0 0 127 0" result="hardAlpha"/>
<feOffset dy="6"/>
<feGaussianBlur stdDeviation="2"/>
<feComposite in2="hardAlpha" operator="out"/>
<feColorMatrix type="matrix" values="0 0 0 0 0 0 0 0 0 0 0 0 0 0 0 0 0 0 0.16 0"/>
<feBlend mode="normal" in2="effect2_dropShadow_733_2358" result="effect3_dropShadow_733_2358"/>
<feBlend mode="normal" in="SourceGraphic" in2="effect3_dropShadow_733_2358" result="shape"/>
</filter>
</defs>
</svg>
