<svg width="25" height="25" viewBox="0 0 25 25" fill="none" xmlns="http://www.w3.org/2000/svg">
<path d="M12.5 8V12.5" stroke="#C4C4C4" stroke-width="1.5" stroke-linecap="round" stroke-linejoin="round"/>
<path d="M16.4 14.75L12.5 12.5" stroke="#C4C4C4" stroke-width="1.5" stroke-linecap="round" stroke-linejoin="round"/>
<path d="M7.2312 9.84668H3.4812V6.09668" stroke="#C4C4C4" stroke-width="1.5" stroke-linecap="round" stroke-linejoin="round"/>
<path d="M6.6687 18.3313C7.82222 19.4857 9.29221 20.2721 10.8927 20.591C12.4933 20.9099 14.1524 20.7469 15.6603 20.1227C17.1682 19.4984 18.457 18.441 19.3639 17.0842C20.2707 15.7273 20.7547 14.132 20.7547 12.5C20.7547 10.868 20.2707 9.2727 19.3639 7.91585C18.457 6.559 17.1682 5.50158 15.6603 4.87735C14.1524 4.25313 12.4933 4.09014 10.8927 4.40902C9.29221 4.72789 7.82222 5.5143 6.6687 6.66875L3.4812 9.84688" stroke="#C4C4C4" stroke-width="1.5" stroke-linecap="round" stroke-linejoin="round"/>
</svg>
