<svg width="68" height="14" viewBox="0 0 68 14" fill="none" xmlns="http://www.w3.org/2000/svg">
<g clip-path="url(#clip0_60_4105)">
<path fill-rule="evenodd" clip-rule="evenodd" d="M14.623 2.56587C14.6 2.68179 14.6 2.82118 14.6 3.09997V10.8C14.6 11.0788 14.6 11.2182 14.623 11.3341C14.7177 11.8101 15.0899 12.1822 15.5659 12.2769C15.6818 12.3 15.8212 12.3 16.1 12.3C16.3788 12.3 16.5182 12.3 16.6341 12.2769C17.1101 12.1822 17.4822 11.8101 17.5769 11.3341C17.6 11.2182 17.6 11.0788 17.6 10.8V3.09998C17.6 2.82118 17.6 2.68179 17.5769 2.56587C17.4822 2.08984 17.1101 1.71772 16.6341 1.62303C16.5182 1.59998 16.3788 1.59998 16.1 1.59998C15.8212 1.59998 15.6818 1.59998 15.5659 1.62303C15.0899 1.71772 14.7177 2.08984 14.623 2.56587ZM9.89999 5.49998C9.89999 5.22118 9.89999 5.08179 9.92305 4.96587C10.0177 4.48984 10.3899 4.11772 10.8659 4.02303C10.9818 3.99998 11.1212 3.99998 11.4 3.99998C11.6788 3.99998 11.8182 3.99998 11.9341 4.02303C12.4101 4.11772 12.7822 4.48984 12.8769 4.96587C12.9 5.08179 12.9 5.22118 12.9 5.49998V10.8C12.9 11.0788 12.9 11.2182 12.8769 11.3341C12.7822 11.8101 12.4101 12.1822 11.9341 12.2769C11.8182 12.3 11.6788 12.3 11.4 12.3C11.1212 12.3 10.9818 12.3 10.8659 12.2769C10.3899 12.1822 10.0177 11.8101 9.92305 11.3341C9.89999 11.2182 9.89999 11.0788 9.89999 10.8V5.49998ZM5.32305 7.26587C5.29999 7.38179 5.29999 7.52119 5.29999 7.79998V10.8C5.29999 11.0788 5.29999 11.2182 5.32305 11.3341C5.41773 11.8101 5.78985 12.1822 6.26588 12.2769C6.3818 12.3 6.52119 12.3 6.79999 12.3C7.07878 12.3 7.21818 12.3 7.3341 12.2769C7.81012 12.1822 8.18224 11.8101 8.27693 11.3341C8.29999 11.2182 8.29999 11.0788 8.29999 10.8V7.79998C8.29999 7.52119 8.29999 7.38179 8.27693 7.26587C8.18224 6.78984 7.81012 6.41773 7.3341 6.32304C7.21818 6.29998 7.07878 6.29998 6.79999 6.29998C6.52119 6.29998 6.3818 6.29998 6.26588 6.32304C5.78985 6.41773 5.41773 6.78984 5.32305 7.26587ZM0.523058 9.26587C0.5 9.38179 0.5 9.52119 0.5 9.79998V10.8C0.5 11.0788 0.5 11.2182 0.523058 11.3341C0.617746 11.8101 0.989863 12.1822 1.46589 12.2769C1.58181 12.3 1.72121 12.3 2 12.3C2.27879 12.3 2.41819 12.3 2.53411 12.2769C3.01014 12.1822 3.38225 11.8101 3.47694 11.3341C3.5 11.2182 3.5 11.0788 3.5 10.8V9.79998C3.5 9.52119 3.5 9.38179 3.47694 9.26587C3.38225 8.78984 3.01014 8.41773 2.53411 8.32304C2.41819 8.29998 2.27879 8.29998 2 8.29998C1.72121 8.29998 1.58181 8.29998 1.46589 8.32304C0.989863 8.41773 0.617746 8.78984 0.523058 9.26587Z" fill="#1F2024"/>
</g>
<defs>
<clipPath id="clip0_60_4105">
<rect width="68" height="14" fill="white"/>
</clipPath>
</defs>
</svg>
