<svg width="24" height="24" viewBox="0 0 24 24" fill="none" xmlns="http://www.w3.org/2000/svg">
<path d="M-3.5 27.5V-3.5H27.5V27.5H-3.5Z" stroke="black"/>
<path d="M3.5 6C4.88071 6 6 4.88071 6 3.5C6 2.11929 4.88071 1 3.5 1C2.11929 1 1 2.11929 1 3.5C1 4.88071 2.11929 6 3.5 6Z" fill="#0083B8" stroke="white"/>
<path d="M12 6C13.3807 6 14.5 4.88071 14.5 3.5C14.5 2.11929 13.3807 1 12 1C10.6193 1 9.5 2.11929 9.5 3.5C9.5 4.88071 10.6193 6 12 6Z" fill="#0083B8" stroke="white"/>
<path d="M20.5 6C21.8807 6 23 4.88071 23 3.5C23 2.11929 21.8807 1 20.5 1C19.1193 1 18 2.11929 18 3.5C18 4.88071 19.1193 6 20.5 6Z" fill="#0083B8" stroke="white"/>
<path d="M3.5 14.5C4.88071 14.5 6 13.3807 6 12C6 10.6193 4.88071 9.5 3.5 9.5C2.11929 9.5 1 10.6193 1 12C1 13.3807 2.11929 14.5 3.5 14.5Z" fill="#0083B8" stroke="white"/>
<path d="M12 14.5C13.3807 14.5 14.5 13.3807 14.5 12C14.5 10.6193 13.3807 9.5 12 9.5C10.6193 9.5 9.5 10.6193 9.5 12C9.5 13.3807 10.6193 14.5 12 14.5Z" fill="#0083B8" stroke="white"/>
<path d="M20.5 14.5C21.8807 14.5 23 13.3807 23 12C23 10.6193 21.8807 9.5 20.5 9.5C19.1193 9.5 18 10.6193 18 12C18 13.3807 19.1193 14.5 20.5 14.5Z" fill="#0083B8" stroke="white"/>
<path d="M3.5 23C4.88071 23 6 21.8807 6 20.5C6 19.1193 4.88071 18 3.5 18C2.11929 18 1 19.1193 1 20.5C1 21.8807 2.11929 23 3.5 23Z" fill="#0083B8" stroke="white"/>
<path d="M12 23C13.3807 23 14.5 21.8807 14.5 20.5C14.5 19.1193 13.3807 18 12 18C10.6193 18 9.5 19.1193 9.5 20.5C9.5 21.8807 10.6193 23 12 23Z" fill="#0083B8" stroke="white"/>
<path d="M20.5 23C21.8807 23 23 21.8807 23 20.5C23 19.1193 21.8807 18 20.5 18C19.1193 18 18 19.1193 18 20.5C18 21.8807 19.1193 23 20.5 23Z" fill="#0083B8" stroke="white"/>
</svg>
