<svg width="24" height="24" viewBox="0 0 24 24" fill="none" xmlns="http://www.w3.org/2000/svg">
<path d="M-3.5 27.5V-3.5H27.5V27.5H-3.5Z" stroke="black"/>
<path d="M3.5 5.5C4.60457 5.5 5.5 4.60457 5.5 3.5C5.5 2.39543 4.60457 1.5 3.5 1.5C2.39543 1.5 1.5 2.39543 1.5 3.5C1.5 4.60457 2.39543 5.5 3.5 5.5Z" fill="white" stroke="white" stroke-width="2"/>
<path d="M12 5.5C13.1046 5.5 14 4.60457 14 3.5C14 2.39543 13.1046 1.5 12 1.5C10.8954 1.5 10 2.39543 10 3.5C10 4.60457 10.8954 5.5 12 5.5Z" fill="white" stroke="white" stroke-width="2"/>
<path d="M20.5 5.5C21.6046 5.5 22.5 4.60457 22.5 3.5C22.5 2.39543 21.6046 1.5 20.5 1.5C19.3954 1.5 18.5 2.39543 18.5 3.5C18.5 4.60457 19.3954 5.5 20.5 5.5Z" fill="white" stroke="white" stroke-width="2"/>
<path d="M3.5 14C4.60457 14 5.5 13.1046 5.5 12C5.5 10.8954 4.60457 10 3.5 10C2.39543 10 1.5 10.8954 1.5 12C1.5 13.1046 2.39543 14 3.5 14Z" fill="white" stroke="white" stroke-width="2"/>
<path d="M12 14C13.1046 14 14 13.1046 14 12C14 10.8954 13.1046 10 12 10C10.8954 10 10 10.8954 10 12C10 13.1046 10.8954 14 12 14Z" fill="white" stroke="white" stroke-width="2"/>
<path d="M20.5 14C21.6046 14 22.5 13.1046 22.5 12C22.5 10.8954 21.6046 10 20.5 10C19.3954 10 18.5 10.8954 18.5 12C18.5 13.1046 19.3954 14 20.5 14Z" fill="white" stroke="white" stroke-width="2"/>
<path d="M3.5 22.5C4.60457 22.5 5.5 21.6046 5.5 20.5C5.5 19.3954 4.60457 18.5 3.5 18.5C2.39543 18.5 1.5 19.3954 1.5 20.5C1.5 21.6046 2.39543 22.5 3.5 22.5Z" fill="white" stroke="white" stroke-width="2"/>
<path d="M12 22.5C13.1046 22.5 14 21.6046 14 20.5C14 19.3954 13.1046 18.5 12 18.5C10.8954 18.5 10 19.3954 10 20.5C10 21.6046 10.8954 22.5 12 22.5Z" fill="white" stroke="white" stroke-width="2"/>
<path d="M20.5 22.5C21.6046 22.5 22.5 21.6046 22.5 20.5C22.5 19.3954 21.6046 18.5 20.5 18.5C19.3954 18.5 18.5 19.3954 18.5 20.5C18.5 21.6046 19.3954 22.5 20.5 22.5Z" fill="white" stroke="white" stroke-width="2"/>
</svg>
