<svg width="48" height="48" viewBox="0 0 48 48" fill="none" xmlns="http://www.w3.org/2000/svg">
<path d="M11.25 14.25C12.9069 14.25 14.25 12.9069 14.25 11.25C14.25 9.59315 12.9069 8.25 11.25 8.25C9.59315 8.25 8.25 9.59315 8.25 11.25C8.25 12.9069 9.59315 14.25 11.25 14.25Z" fill="#666666"/>
<path d="M24 14.25C25.6569 14.25 27 12.9069 27 11.25C27 9.59315 25.6569 8.25 24 8.25C22.3431 8.25 21 9.59315 21 11.25C21 12.9069 22.3431 14.25 24 14.25Z" fill="#666666"/>
<path d="M36.75 14.25C38.4069 14.25 39.75 12.9069 39.75 11.25C39.75 9.59315 38.4069 8.25 36.75 8.25C35.0931 8.25 33.75 9.59315 33.75 11.25C33.75 12.9069 35.0931 14.25 36.75 14.25Z" fill="#666666"/>
<path d="M11.25 27C12.9069 27 14.25 25.6569 14.25 24C14.25 22.3431 12.9069 21 11.25 21C9.59315 21 8.25 22.3431 8.25 24C8.25 25.6569 9.59315 27 11.25 27Z" fill="#666666"/>
<path d="M24 27C25.6569 27 27 25.6569 27 24C27 22.3431 25.6569 21 24 21C22.3431 21 21 22.3431 21 24C21 25.6569 22.3431 27 24 27Z" fill="#666666"/>
<path d="M36.75 27C38.4069 27 39.75 25.6569 39.75 24C39.75 22.3431 38.4069 21 36.75 21C35.0931 21 33.75 22.3431 33.75 24C33.75 25.6569 35.0931 27 36.75 27Z" fill="#666666"/>
<path d="M11.25 39.75C12.9069 39.75 14.25 38.4069 14.25 36.75C14.25 35.0931 12.9069 33.75 11.25 33.75C9.59315 33.75 8.25 35.0931 8.25 36.75C8.25 38.4069 9.59315 39.75 11.25 39.75Z" fill="#666666"/>
<path d="M24 39.75C25.6569 39.75 27 38.4069 27 36.75C27 35.0931 25.6569 33.75 24 33.75C22.3431 33.75 21 35.0931 21 36.75C21 38.4069 22.3431 39.75 24 39.75Z" fill="#666666"/>
<path d="M36.75 39.75C38.4069 39.75 39.75 38.4069 39.75 36.75C39.75 35.0931 38.4069 33.75 36.75 33.75C35.0931 33.75 33.75 35.0931 33.75 36.75C33.75 38.4069 35.0931 39.75 36.75 39.75Z" fill="#666666"/>
</svg>
