<svg width="18" height="14" viewBox="0 0 18 14" fill="none" xmlns="http://www.w3.org/2000/svg">
<path d="M9.00002 3.6665C8.07502 3.6665 7.23335 4.02484 6.63335 4.63317C6.02502 5.23317 5.66669 6.07484 5.66669 6.99984C5.66669 7.92484 6.02502 8.7665 6.63335 9.3665C7.23335 9.97484 8.07502 10.3332 9.00002 10.3332C9.92502 10.3332 10.7667 9.97484 11.3667 9.3665C11.975 8.7665 12.3334 7.92484 12.3334 6.99984C12.3334 6.07484 11.975 5.23317 11.3667 4.63317C10.7667 4.02484 9.92502 3.6665 9.00002 3.6665ZM10.1917 8.1915C9.90002 8.48317 9.49169 8.6665 9.00002 8.6665C8.50835 8.6665 8.10002 8.48317 7.80835 8.1915C7.51669 7.89984 7.33335 7.4915 7.33335 6.99984C7.33335 6.50817 7.51669 6.09984 7.80835 5.80817C8.10002 5.5165 8.50835 5.33317 9.00002 5.33317C9.49169 5.33317 9.90002 5.5165 10.1917 5.80817C10.4834 6.09984 10.6667 6.50817 10.6667 6.99984C10.6667 7.4915 10.4834 7.89984 10.1917 8.1915Z" fill="#666666"/>
<path d="M17.3334 6.99992C17.325 6.38325 17.125 5.72492 16.775 5.01658C16.2417 3.95825 15.3417 2.80825 14.05 1.89159C12.75 0.983252 11.05 0.333252 9.00002 0.333252C6.25835 0.333252 4.15835 1.49159 2.78335 2.86659C2.09169 3.55825 1.57502 4.30825 1.22502 5.01658C0.87502 5.72492 0.67502 6.38325 0.666687 6.99992C0.67502 7.61659 0.87502 8.27492 1.22502 8.98325C1.75835 10.0416 2.65835 11.1916 3.95002 12.1083C5.25002 13.0166 6.95002 13.6666 9.00002 13.6666C11.7417 13.6666 13.8417 12.5083 15.2167 11.1333C15.9084 10.4416 16.425 9.69992 16.775 8.99159C17.125 8.27492 17.325 7.61659 17.3334 6.99992ZM15.2834 8.24158C14.875 9.05825 14.1334 10.0166 13.0917 10.7416C12.0417 11.4749 10.7 11.9999 9.00002 11.9999C6.74169 11.9999 5.09169 11.0749 3.96669 9.94992C3.40835 9.39159 2.98335 8.78325 2.71669 8.24158C2.44169 7.70825 2.32502 7.21659 2.33335 6.99992C2.32502 6.78325 2.44169 6.29992 2.71669 5.75825C3.12502 4.94159 3.86669 3.98325 4.90835 3.25825C5.95835 2.52492 7.30002 1.99992 9.00002 1.99992C11.2584 1.99992 12.9084 2.92492 14.0334 4.04992C14.5917 4.60825 15.0167 5.21659 15.2834 5.75825C15.5584 6.29992 15.675 6.78325 15.6667 6.99992C15.675 7.21659 15.5584 7.69992 15.2834 8.24158Z" fill="#666666"/>
</svg>
