<svg width="25" height="25" viewBox="0 0 25 25" fill="none" xmlns="http://www.w3.org/2000/svg">
<path d="M12.5 17C14.9853 17 17 14.9853 17 12.5C17 10.0147 14.9853 8 12.5 8C10.0147 8 8 10.0147 8 12.5C8 14.9853 10.0147 17 12.5 17Z" stroke="#C4C4C4" stroke-width="1.5" stroke-linecap="round" stroke-linejoin="round"/>
<path d="M17.7219 6.60303C17.9594 6.82178 18.1844 7.04678 18.3969 7.27803L20.9563 7.64365C21.3733 8.36788 21.6947 9.14308 21.9125 9.9499L20.3563 12.0218C20.3563 12.0218 20.3844 12.6593 20.3563 12.978L21.9125 15.0499C21.6957 15.8571 21.3742 16.6324 20.9563 17.3562L18.3969 17.7218C18.3969 17.7218 17.9563 18.1812 17.7219 18.3968L17.3563 20.9562C16.632 21.3732 15.8568 21.6946 15.05 21.9124L12.9782 20.3562C12.66 20.3843 12.34 20.3843 12.0219 20.3562L9.95002 21.9124C9.14286 21.6956 8.36753 21.3741 7.64377 20.9562L7.27815 18.3968C7.0469 18.178 6.8219 17.953 6.60315 17.7218L4.04377 17.3562C3.62676 16.6319 3.30533 15.8567 3.08752 15.0499L4.64377 12.978C4.64377 12.978 4.61565 12.3405 4.64377 12.0218L3.08752 9.9499C3.30432 9.14274 3.6258 8.3674 4.04377 7.64365L6.60315 7.27803C6.8219 7.04678 7.0469 6.82178 7.27815 6.60303L7.64377 4.04365C8.368 3.62664 9.1432 3.30521 9.95002 3.0874L12.0219 4.64365C12.34 4.61552 12.66 4.61552 12.9782 4.64365L15.05 3.0874C15.8572 3.3042 16.6325 3.62568 17.3563 4.04365L17.7219 6.60303Z" stroke="#C4C4C4" stroke-width="1.5" stroke-linecap="round" stroke-linejoin="round"/>
</svg>
