<svg width="25" height="25" viewBox="0 0 25 25" fill="none" xmlns="http://www.w3.org/2000/svg">
<path opacity="0.2" d="M20.3562 12.978C20.3843 12.6593 20.3562 12.0218 20.3562 12.0218L21.9125 9.9499C21.6947 9.14308 21.3732 8.36788 20.9562 7.64365L18.3968 7.27803C18.1781 7.04678 17.9531 6.82178 17.7218 6.60303L17.3562 4.04365C16.6325 3.62568 15.8571 3.3042 15.05 3.0874L12.9781 4.64365C12.66 4.61552 12.34 4.61552 12.0218 4.64365L9.94996 3.0874C9.14314 3.30521 8.36794 3.62664 7.64371 4.04365L7.27809 6.60303C7.04684 6.82178 6.82184 7.04678 6.60309 7.27803L4.04371 7.64365C3.62574 8.3674 3.30426 9.14274 3.08746 9.9499L4.64371 12.0218C4.62496 12.3405 4.64371 12.978 4.64371 12.978L3.08746 15.0499C3.30527 15.8567 3.6267 16.6319 4.04371 17.3562L6.60309 17.7218C6.82184 17.9593 7.04684 18.1843 7.27809 18.3968L7.64371 20.9562C8.36747 21.3741 9.1428 21.6956 9.94996 21.9124L12.0218 20.3562C12.34 20.3843 12.66 20.3843 12.9781 20.3562L15.05 21.9124C15.8568 21.6946 16.632 21.3732 17.3562 20.9562L17.7218 18.3968C17.9562 18.1812 18.3968 17.7218 18.3968 17.7218L20.9562 17.3562C21.3742 16.6324 21.6957 15.8571 21.9125 15.0499L20.3562 12.978ZM12.5 16.9999C11.6099 16.9999 10.7399 16.736 9.9999 16.2415C9.25988 15.747 8.6831 15.0442 8.34251 14.222C8.00191 13.3997 7.9128 12.4949 8.08643 11.622C8.26006 10.7491 8.68865 9.94726 9.31798 9.31792C9.94732 8.68859 10.7491 8.26 11.6221 8.08637C12.495 7.91274 13.3998 8.00185 14.222 8.34244C15.0443 8.68304 15.7471 9.25982 16.2416 9.99984C16.736 10.7399 17 11.6099 17 12.4999C17 13.6934 16.5259 14.838 15.6819 15.6819C14.838 16.5258 13.6934 16.9999 12.5 16.9999Z" fill="#0083B8"/>
<path d="M12.5 17C14.9853 17 17 14.9853 17 12.5C17 10.0147 14.9853 8 12.5 8C10.0147 8 8 10.0147 8 12.5C8 14.9853 10.0147 17 12.5 17Z" stroke="#0083B8" stroke-width="2" stroke-linecap="round" stroke-linejoin="round"/>
<path d="M17.7218 6.60303C17.9593 6.82178 18.1843 7.04678 18.3968 7.27803L20.9562 7.64365C21.3732 8.36788 21.6947 9.14308 21.9125 9.9499L20.3562 12.0218C20.3562 12.0218 20.3843 12.6593 20.3562 12.978L21.9125 15.0499C21.6957 15.8571 21.3742 16.6324 20.9562 17.3562L18.3968 17.7218C18.3968 17.7218 17.9562 18.1812 17.7218 18.3968L17.3562 20.9562C16.632 21.3732 15.8568 21.6946 15.05 21.9124L12.9781 20.3562C12.66 20.3843 12.34 20.3843 12.0218 20.3562L9.94996 21.9124C9.1428 21.6956 8.36747 21.3741 7.64371 20.9562L7.27809 18.3968C7.04684 18.178 6.82184 17.953 6.60309 17.7218L4.04371 17.3562C3.6267 16.6319 3.30527 15.8567 3.08746 15.0499L4.64371 12.978C4.64371 12.978 4.62496 12.3405 4.64371 12.0218L3.08746 9.9499C3.30426 9.14274 3.62574 8.3674 4.04371 7.64365L6.60309 7.27803C6.82184 7.04678 7.04684 6.82178 7.27809 6.60303L7.64371 4.04365C8.36794 3.62664 9.14314 3.30521 9.94996 3.0874L12.0218 4.64365C12.34 4.61552 12.66 4.61552 12.9781 4.64365L15.05 3.0874C15.8571 3.3042 16.6325 3.62568 17.3562 4.04365L17.7218 6.60303Z" stroke="#0083B8" stroke-width="2" stroke-linecap="round" stroke-linejoin="round"/>
</svg>
