<svg width="20" height="20" viewBox="0 0 20 20" fill="none" xmlns="http://www.w3.org/2000/svg">
<path d="M5.7215 14.5H6.43125H9.375H9.875V15V18.6538V19.3299L9.22851 19.1318C8.21618 18.8216 7.29775 17.9252 6.57519 16.5705L5.7215 14.5ZM5.7215 14.5L5.96043 15.1683M5.7215 14.5L5.96043 15.1683M5.96043 15.1683C6.14028 15.6714 6.34614 16.1415 6.57507 16.5703L5.96043 15.1683ZM9.875 1.34625V0.671348L9.22936 0.86793C8.2146 1.1769 7.29727 2.07558 6.57507 3.4297L6.5742 3.43136C6.33545 3.88306 6.13012 4.35165 5.95984 4.83336L5.72418 5.5H6.43125H9.375H9.875V5V1.34625ZM5.1125 5.5H5.47965L5.58957 5.14969C5.78886 4.51453 6.04498 3.89862 6.3548 3.30942C6.55796 2.92535 6.79256 2.55875 7.05619 2.21338L8.18369 0.736297L6.46721 1.44814C4.83028 2.127 3.42191 3.26029 2.40856 4.71408L1.86075 5.5H2.81875H5.1125ZM4.385 9.875H4.86819L4.88471 9.39209C4.92119 8.32562 5.05247 7.30504 5.26306 6.3586L5.39848 5.75H4.775H2.0925H1.77645L1.64086 6.03548C1.14796 7.07321 0.85384 8.19409 0.773718 9.34013L0.736323 9.875H1.2725H4.385ZM6.05875 5.75H5.66452L5.57255 6.13335C5.31882 7.1909 5.17274 8.2714 5.13653 9.35835L5.11931 9.875H5.63625H9.375H9.875V9.375V6.25V5.75H9.375H6.05875ZM10.625 5.75H10.125V6.25V9.375V9.875H10.625H14.3625H14.8792L14.8622 9.35857C14.8265 8.27164 14.6808 7.19112 14.4275 6.13353L14.3356 5.75H13.9412H10.625ZM5.6375 10.125H5.12077L5.13777 10.6415C5.17356 11.7284 5.31921 12.8089 5.5725 13.8665L5.66436 14.25H6.05875H9.375H9.875V13.75V10.625V10.125H9.375H5.6375ZM10.625 10.125H10.125V10.625V13.75V14.25H10.625H13.9412H14.3337L14.4269 13.8687C14.6691 12.8782 14.8223 11.7906 14.8634 10.6429L14.882 10.125H14.3638H10.625ZM6.46723 18.5519L8.18377 19.2637L7.05618 17.7866C6.79242 17.4411 6.55773 17.0743 6.35454 16.6901C6.04484 16.101 5.78881 15.4853 5.58957 14.8503L5.47964 14.5H5.1125H2.81875H1.8608L2.40855 15.2859C3.42185 16.7398 4.83025 17.8731 6.46723 18.5519ZM4.775 14.25H5.39696L5.26332 13.6426C5.0439 12.6452 4.91717 11.6298 4.88475 10.6091L4.86937 10.125H4.385H1.2725H0.736457L0.773709 10.6597C0.855651 11.836 1.15843 12.9508 1.64102 13.9649L1.77671 14.25H2.0925H4.775ZM12.9439 17.7866L11.8159 19.2638L13.5328 18.5519C15.1698 17.8731 16.5781 16.7398 17.5914 15.2859L18.1392 14.5H17.1812H14.8875H14.5204L14.4104 14.8503C14.2112 15.4853 13.9551 16.1012 13.6454 16.6903C13.4422 17.0745 13.2076 17.4412 12.9439 17.7866ZM10.625 14.5H10.125V15V18.6538V19.3287L10.7706 19.1321C11.7854 18.8231 12.7026 17.9245 13.4248 16.5705C13.6538 16.1417 13.8597 15.6714 14.0396 15.1683L14.2785 14.5H13.5687H10.625ZM14.7367 13.6426L14.603 14.25H15.225H17.9075H18.2233L18.359 13.9649C18.8416 12.9508 19.1443 11.836 19.2263 10.6597L19.2635 10.125H18.7275H15.615H15.1306L15.1153 10.6091C15.0828 11.6298 14.9561 12.6452 14.7367 13.6426ZM18.7275 9.875H19.2637L19.2263 9.34012C19.1461 8.19409 18.852 7.07322 18.3591 6.03549L18.2236 5.75H17.9075H15.225H14.6015L14.7369 6.3586C14.9475 7.30504 15.0788 8.32562 15.1153 9.39209L15.1318 9.875H15.615H18.7275ZM14.4111 5.15171L14.522 5.5H14.8875H17.1812H18.1392L17.5914 4.7141C16.5781 3.26025 15.1698 2.12693 13.5328 1.44813L11.8071 0.732575L12.9446 2.21445C13.1988 2.54563 13.4343 2.91469 13.6464 3.31166C13.9395 3.86234 14.1969 4.47898 14.4111 5.15171ZM13.5687 5.5H14.2758L14.0402 4.83338C13.8699 4.35165 13.6646 3.88305 13.4258 3.43134L13.4249 3.42971C12.7025 2.07511 11.7852 1.17837 10.7713 0.86813L10.125 0.670384V1.34625V5V5.5H10.625H13.5687ZM0.5 10C0.5 7.48044 1.50089 5.06408 3.28249 3.28249C5.06408 1.50089 7.48044 0.5 10 0.5C12.5196 0.5 14.9359 1.50089 16.7175 3.28249C18.4991 5.06408 19.5 7.48044 19.5 10C19.5 12.5196 18.4991 14.9359 16.7175 16.7175C14.9359 18.4991 12.5196 19.5 10 19.5C7.48044 19.5 5.06408 18.4991 3.28249 16.7175C1.50089 14.9359 0.5 12.5196 0.5 10Z" fill="#666666" stroke="#666666"/>
</svg>
