<svg width="48" height="44" viewBox="0 0 48 44" fill="none" xmlns="http://www.w3.org/2000/svg">
<path d="M48 0.526367H0V43.9359H48V0.526367Z" fill="#E8F5FB"/>
<path d="M24 27.6569C30.6274 27.6569 36 22.7982 36 16.8045C36 10.8109 30.6274 5.95215 24 5.95215C17.3726 5.95215 12 10.8109 12 16.8045C12 22.7982 17.3726 27.6569 24 27.6569Z" fill="#E8F5FB" stroke="white" stroke-width="2" stroke-miterlimit="10"/>
<path d="M5.8125 37.1526C7.6555 34.2651 10.3066 31.8673 13.4992 30.2001C16.6918 28.533 20.3134 27.6553 24 27.6553C27.6866 27.6553 31.3082 28.533 34.5008 30.2001C37.6934 31.8673 40.3445 34.2651 42.1875 37.1526" fill="#E8F5FB"/>
<path d="M5.8125 37.1526C7.65551 34.2651 10.3066 31.8673 13.4992 30.2001C16.6918 28.533 20.3134 27.6553 24 27.6553C27.6866 27.6553 31.3082 28.533 34.5008 30.2001C37.6934 31.8673 40.3445 34.2651 42.1875 37.1526" stroke="white" stroke-width="2" stroke-linecap="round" stroke-linejoin="round"/>
</svg>
