<svg width="20" height="20" viewBox="0 0 20 20" fill="none" xmlns="http://www.w3.org/2000/svg">
<path d="M19.8525 17.8901C18.5649 15.6719 16.5679 13.9519 14.1832 13.0075C15.3539 12.1296 16.2186 10.9055 16.6549 9.50881C17.0912 8.11208 17.077 6.61347 16.6143 5.22526C16.1516 3.83706 15.2638 2.62963 14.0767 1.77403C12.8896 0.918421 11.4634 0.458008 10.0001 0.458008C8.53683 0.458008 7.11063 0.918421 5.92354 1.77403C4.73646 2.62963 3.84867 3.83706 3.38595 5.22526C2.92322 6.61347 2.90901 8.11208 3.34533 9.50881C3.78164 10.9055 4.64637 12.1296 5.81701 13.0075C3.43247 13.9519 1.43544 15.6718 0.1479 17.8899C0.0017481 18.1426 -0.0380448 18.443 0.0372732 18.7251C0.112591 19.0071 0.296852 19.2477 0.54953 19.3939C0.802208 19.5401 1.10261 19.5799 1.38466 19.5047C1.66672 19.4294 1.90733 19.2452 2.05358 18.9925C2.85916 17.5979 4.0176 16.4398 5.41251 15.6347C6.80741 14.8295 8.38964 14.4057 10.0002 14.4057C11.6108 14.4057 13.193 14.8296 14.5879 15.6348C15.9828 16.4399 17.1412 17.598 17.9468 18.9927C18.0931 19.2451 18.3337 19.4291 18.6157 19.5043C18.8976 19.5794 19.1979 19.5396 19.4504 19.3934C19.703 19.2473 19.8872 19.0069 19.9626 18.725C20.038 18.4431 19.9984 18.1428 19.8525 17.8901H19.8525ZM5.22985 7.43375C5.22985 6.49028 5.50962 5.568 6.03378 4.78353C6.55795 3.99906 7.30296 3.38765 8.17462 3.02659C9.04627 2.66554 10.0054 2.57108 10.9308 2.75514C11.8561 2.9392 12.7061 3.39352 13.3732 4.06066C14.0404 4.7278 14.4947 5.57778 14.6787 6.50312C14.8628 7.42846 14.7683 8.38761 14.4073 9.25926C14.0462 10.1309 13.4348 10.8759 12.6503 11.4001C11.8659 11.9243 10.9436 12.204 10.0001 12.204C8.73541 12.2026 7.5229 11.6996 6.62861 10.8053C5.73432 9.91098 5.23128 8.69847 5.22985 7.43375Z" fill="#666666"/>
</svg>
