<svg width="48" height="48" viewBox="0 0 48 48" fill="none" xmlns="http://www.w3.org/2000/svg">
<path opacity="0.2" d="M31.5 12C31.5 7.85786 28.1421 4.5 24 4.5C19.8579 4.5 16.5 7.85786 16.5 12V24C16.5 28.1421 19.8579 31.5 24 31.5C28.1421 31.5 31.5 28.1421 31.5 24V12Z" fill="#666666"/>
<path d="M33.0751 33.9938C31.2342 35.6679 28.9664 36.8007 26.5221 37.267C24.0779 37.7334 21.5523 37.5151 19.2243 36.6362C16.8964 35.7574 14.8566 34.2523 13.3302 32.2871C11.8039 30.3219 10.8504 27.973 10.5751 25.5" stroke="#666666" stroke-width="2" stroke-linecap="round" stroke-linejoin="round"/>
<path d="M29.0437 29.55C27.6674 30.8109 25.8666 31.5071 24 31.5V31.5C22.0109 31.5 20.1032 30.7098 18.6967 29.3033C17.2902 27.8968 16.5 25.9891 16.5 24V15.75" stroke="#666666" stroke-width="2" stroke-linecap="round" stroke-linejoin="round"/>
<path d="M24 37.5V43.5" stroke="#666666" stroke-width="2" stroke-linecap="round" stroke-linejoin="round"/>
<path d="M9 7.5L39 40.5" stroke="#666666" stroke-width="2" stroke-linecap="round" stroke-linejoin="round"/>
<path d="M17.625 8.06251C18.2933 6.97223 19.2306 6.07199 20.3469 5.44816C21.4633 4.82433 22.7212 4.49784 24 4.50001V4.50001C25.9891 4.50001 27.8968 5.29019 29.3033 6.69671C30.7098 8.10323 31.5 10.0109 31.5 12V23.325" stroke="#666666" stroke-width="2" stroke-linecap="round" stroke-linejoin="round"/>
<path d="M37.4249 25.5C37.2928 26.6693 37.0091 27.8164 36.5812 28.9125" stroke="#666666" stroke-width="2" stroke-linecap="round" stroke-linejoin="round"/>
</svg>
