<svg width="24" height="24" viewBox="0 0 24 24" fill="none" xmlns="http://www.w3.org/2000/svg">
<path d="M22.8343 16.1161L17.1979 13.7125C16.907 13.5822 16.5878 13.5281 16.2702 13.5555C15.9527 13.5828 15.6474 13.6906 15.3831 13.8688L12.3666 15.8758C10.5281 14.9829 9.03961 13.5028 8.13623 11.6695V11.6695L10.1312 8.61687C10.3082 8.35233 10.4163 8.04777 10.4456 7.73086C10.475 7.41395 10.4248 7.09471 10.2995 6.80214L7.88385 1.16567C7.71529 0.785073 7.42988 0.468065 7.069 0.260616C6.70813 0.0531664 6.29055 -0.0339382 5.87684 0.0119337C4.25391 0.224538 2.7634 1.01925 1.68244 2.24833C0.601473 3.4774 0.00360825 5.05719 0 6.69398C0 16.2363 7.76367 24 17.306 24C18.9428 23.9964 20.5226 23.3985 21.7517 22.3176C22.9807 21.2366 23.7755 19.7461 23.9881 18.1232C24.0339 17.7094 23.9468 17.2919 23.7394 16.931C23.5319 16.5701 23.2149 16.2847 22.8343 16.1161Z" fill="white"/>
<path d="M15.0705 2.81218C16.534 3.21201 17.8679 3.98651 18.9406 5.05925C20.0134 6.132 20.7879 7.46592 21.1877 8.92938C21.2408 9.13485 21.3603 9.31699 21.5277 9.44742C21.6951 9.57786 21.9009 9.64924 22.1131 9.65047C22.1985 9.6503 22.2835 9.63817 22.3655 9.61441C22.4877 9.58243 22.6023 9.52638 22.7026 9.44955C22.8029 9.37271 22.8868 9.27664 22.9495 9.16695C23.0122 9.05727 23.0523 8.93617 23.0676 8.81077C23.0829 8.68536 23.073 8.55817 23.0385 8.43664C22.5578 6.64437 21.614 5.01012 20.3019 3.698C18.9898 2.38588 17.3555 1.44209 15.5633 0.961401C15.4378 0.915712 15.3043 0.896637 15.1711 0.90539C15.0379 0.914143 14.908 0.950533 14.7897 1.01224C14.6713 1.07395 14.5671 1.15963 14.4837 1.26382C14.4002 1.36801 14.3394 1.48843 14.3051 1.61741C14.2707 1.7464 14.2636 1.88112 14.2842 2.013C14.3048 2.14488 14.3526 2.27103 14.4246 2.38342C14.4966 2.49581 14.5912 2.59197 14.7024 2.66579C14.8136 2.73961 14.939 2.78947 15.0705 2.81218Z" fill="white"/>
<path d="M14.0731 6.52556C14.8866 6.74824 15.628 7.17898 16.2244 7.77536C16.8208 8.37175 17.2515 9.11319 17.4742 9.92668C17.5254 10.1332 17.6444 10.3165 17.8122 10.4472C17.98 10.578 18.1869 10.6486 18.3996 10.6478C18.4811 10.6486 18.5622 10.6364 18.6399 10.6117C18.7632 10.581 18.8791 10.5259 18.9808 10.4497C19.0824 10.3734 19.1676 10.2775 19.2315 10.1677C19.2954 10.0579 19.3366 9.93632 19.3526 9.81029C19.3687 9.68425 19.3593 9.55627 19.325 9.43394C19.0215 8.29163 18.4214 7.24983 17.5857 6.41407C16.7499 5.57832 15.7081 4.97829 14.5658 4.67478C14.4404 4.62909 14.3069 4.61002 14.1737 4.61877C14.0405 4.62752 13.9106 4.66391 13.7922 4.72562C13.6739 4.78733 13.5696 4.87301 13.4862 4.9772C13.4028 5.08139 13.342 5.20181 13.3076 5.33079C13.2733 5.45978 13.2662 5.5945 13.2868 5.72638C13.3073 5.85826 13.3552 5.98441 13.4272 6.0968C13.4992 6.20919 13.5938 6.30535 13.705 6.37917C13.8162 6.45299 13.9415 6.50284 14.0731 6.52556Z" fill="white"/>
</svg>
