<svg width="25" height="24" viewBox="0 0 25 24" fill="none" xmlns="http://www.w3.org/2000/svg">
<path opacity="0.2" d="M12.5 21C17.4706 21 21.5 16.9706 21.5 12C21.5 7.02944 17.4706 3 12.5 3C7.52944 3 3.5 7.02944 3.5 12C3.5 16.9706 7.52944 21 12.5 21Z" fill="#0083B8"/>
<path d="M12.5 21C17.4706 21 21.5 16.9706 21.5 12C21.5 7.02944 17.4706 3 12.5 3C7.52944 3 3.5 7.02944 3.5 12C3.5 16.9706 7.52944 21 12.5 21Z" stroke="#0083B8" stroke-width="1.5" stroke-linecap="round" stroke-linejoin="round"/>
<path d="M12.5 18C13.1213 18 13.625 17.4963 13.625 16.875C13.625 16.2537 13.1213 15.75 12.5 15.75C11.8787 15.75 11.375 16.2537 11.375 16.875C11.375 17.4963 11.8787 18 12.5 18Z" fill="#0083B8"/>
<path d="M12.5 13.5V12.75C13.0192 12.75 13.5267 12.596 13.9584 12.3076C14.3901 12.0192 14.7265 11.6092 14.9252 11.1295C15.1239 10.6499 15.1758 10.1221 15.0746 9.61289C14.9733 9.10369 14.7233 8.63596 14.3562 8.26885C13.989 7.90173 13.5213 7.65173 13.0121 7.55044C12.5029 7.44915 11.9751 7.50114 11.4955 7.69982C11.0158 7.8985 10.6058 8.23495 10.3174 8.66663C10.029 9.09831 9.875 9.60583 9.875 10.125" stroke="#0083B8" stroke-width="1.5" stroke-linecap="round" stroke-linejoin="round"/>
</svg>
