<svg width="25" height="25" viewBox="0 0 25 25" fill="none" xmlns="http://www.w3.org/2000/svg">
<path d="M12.5 21.5C17.4706 21.5 21.5 17.4706 21.5 12.5C21.5 7.52944 17.4706 3.5 12.5 3.5C7.52944 3.5 3.5 7.52944 3.5 12.5C3.5 17.4706 7.52944 21.5 12.5 21.5Z" stroke="#C4C4C4" stroke-width="1.5" stroke-linecap="round" stroke-linejoin="round"/>
<path d="M12.5 18.3125C13.0178 18.3125 13.4375 17.8928 13.4375 17.375C13.4375 16.8572 13.0178 16.4375 12.5 16.4375C11.9822 16.4375 11.5625 16.8572 11.5625 17.375C11.5625 17.8928 11.9822 18.3125 12.5 18.3125Z" fill="#C4C4C4"/>
<path d="M12.5 14V13.25C13.0192 13.25 13.5267 13.096 13.9584 12.8076C14.3901 12.5192 14.7265 12.1092 14.9252 11.6295C15.1239 11.1499 15.1758 10.6221 15.0746 10.1129C14.9733 9.60369 14.7233 9.13596 14.3562 8.76885C13.989 8.40173 13.5213 8.15173 13.0121 8.05044C12.5029 7.94915 11.9751 8.00114 11.4955 8.19982C11.0158 8.3985 10.6058 8.73495 10.3174 9.16663C10.029 9.59831 9.875 10.1058 9.875 10.625" stroke="#C4C4C4" stroke-width="1.5" stroke-linecap="round" stroke-linejoin="round"/>
</svg>
