<svg width="32" height="32" viewBox="0 0 32 32" fill="none" xmlns="http://www.w3.org/2000/svg">
<path opacity="0.2" d="M12.2282 12.9284C11.6536 15.1923 11.8626 17.584 12.8212 19.7139C12.8927 19.8701 13.0036 20.0051 13.143 20.1054C13.2825 20.2057 13.4456 20.268 13.6164 20.2861L17.3114 20.6964C17.4756 20.7135 17.6327 20.7718 17.7682 20.866C17.9037 20.9603 18.0131 21.0873 18.0862 21.2352L20.914 26.863C21.0123 27.0533 21.0454 27.2707 21.008 27.4817C20.9707 27.6926 20.8651 27.8854 20.7074 28.0305C19.6453 29.0078 18.2635 29.5646 16.8205 29.5968C15.3776 29.6289 13.9723 29.1342 12.8678 28.2052C9.45502 25.3336 7.32281 21.2238 6.94019 16.7801C6.55758 12.3363 7.95591 7.92258 10.8276 4.50982C11.7571 3.40567 13.0571 2.67804 14.4843 2.46308C15.9115 2.24812 17.3681 2.56056 18.5816 3.34195C18.7618 3.45787 18.8989 3.6298 18.9717 3.83127C19.0446 4.03274 19.0492 4.25257 18.9848 4.4569L17.1527 10.4947C17.1063 10.6501 17.0224 10.7918 16.9084 10.9073C16.7944 11.0227 16.6537 11.1083 16.4988 11.1565L12.8965 12.2302C12.7347 12.2797 12.5883 12.3699 12.4713 12.4921C12.3543 12.6144 12.2706 12.7646 12.2282 12.9284Z" fill="#0083B8"/>
<path d="M12.2282 12.9284C11.6536 15.1923 11.8626 17.584 12.8212 19.7139C12.8927 19.8701 13.0036 20.0051 13.143 20.1054C13.2825 20.2057 13.4456 20.268 13.6164 20.2861L17.3114 20.6964C17.4756 20.7135 17.6327 20.7718 17.7682 20.866C17.9037 20.9603 18.0131 21.0873 18.0862 21.2352L20.914 26.863C21.0123 27.0533 21.0454 27.2707 21.008 27.4817C20.9707 27.6926 20.8651 27.8854 20.7074 28.0305C19.6453 29.0078 18.2635 29.5646 16.8205 29.5968C15.3776 29.6289 13.9723 29.1342 12.8678 28.2052C9.45502 25.3336 7.32281 21.2238 6.94019 16.7801C6.55758 12.3363 7.95591 7.92258 10.8276 4.50982C11.7571 3.40567 13.0571 2.67804 14.4843 2.46308C15.9115 2.24812 17.3681 2.56056 18.5816 3.34195C18.7618 3.45787 18.8989 3.6298 18.9717 3.83127C19.0446 4.03274 19.0492 4.25257 18.9848 4.4569L17.1527 10.4947C17.1063 10.6501 17.0224 10.7918 16.9084 10.9073C16.7944 11.0227 16.6537 11.1083 16.4988 11.1565L12.8965 12.2302C12.7347 12.2797 12.5883 12.3699 12.4713 12.4921C12.3543 12.6144 12.2706 12.7646 12.2282 12.9284V12.9284Z" stroke="#0083B8" stroke-width="2" stroke-linecap="round" stroke-linejoin="round"/>
<path d="M25.6318 12.166L28.9773 15.8092L25.3341 19.1547" stroke="#0083B8" stroke-width="2" stroke-linecap="round" stroke-linejoin="round"/>
<path d="M20.5908 15.4521L28.9772 15.8093" stroke="#0083B8" stroke-width="2" stroke-linecap="round" stroke-linejoin="round"/>
</svg>
