<svg width="49" height="48" viewBox="0 0 49 48" fill="none" xmlns="http://www.w3.org/2000/svg">
<path opacity="0.2" d="M18.8423 19.3926C17.9805 22.7884 18.294 26.376 19.7319 29.5709C19.8391 29.8052 20.0054 30.0076 20.2146 30.1581C20.4238 30.3086 20.6685 30.402 20.9247 30.4292L26.4672 31.0446C26.7134 31.0702 26.9491 31.1577 27.1524 31.2991C27.3556 31.4404 27.5197 31.6309 27.6294 31.8529L31.8711 40.2945C32.0186 40.58 32.0681 40.9061 32.0121 41.2225C31.9561 41.5389 31.7977 41.8282 31.5611 42.0457C29.968 43.5117 27.8953 44.3469 25.7309 44.3952C23.5664 44.4434 21.4586 43.7013 19.8017 42.3078C14.6826 38.0003 11.4843 31.8357 10.9104 25.1701C10.3364 18.5045 12.4339 11.8839 16.7414 6.76474C18.1357 5.10851 20.0857 4.01706 22.2265 3.69462C24.3673 3.37218 26.5523 3.84084 28.3725 5.01292C28.6428 5.1868 28.8484 5.4447 28.9576 5.7469C29.0669 6.04911 29.0738 6.37885 28.9773 6.68536L26.2291 15.742C26.1595 15.9752 26.0337 16.1878 25.8627 16.3609C25.6916 16.534 25.4806 16.6624 25.2482 16.7348L19.8448 18.3453C19.6021 18.4196 19.3825 18.5548 19.207 18.7382C19.0315 18.9216 18.9059 19.1469 18.8423 19.3926Z" fill="#666666"/>
<path d="M18.8423 19.3926C17.9805 22.7884 18.294 26.376 19.7319 29.5709C19.8391 29.8052 20.0054 30.0076 20.2146 30.1581C20.4238 30.3086 20.6685 30.402 20.9247 30.4292L26.4672 31.0446C26.7134 31.0702 26.9491 31.1577 27.1524 31.2991C27.3556 31.4404 27.5197 31.6309 27.6294 31.8529L31.8711 40.2945C32.0186 40.58 32.0681 40.9061 32.0121 41.2225C31.9561 41.5389 31.7977 41.8282 31.5611 42.0457C29.968 43.5117 27.8953 44.3469 25.7309 44.3952C23.5664 44.4434 21.4586 43.7013 19.8017 42.3078C14.6826 38.0003 11.4843 31.8357 10.9104 25.1701C10.3364 18.5045 12.4339 11.8839 16.7414 6.76474C18.1357 5.10851 20.0857 4.01706 22.2265 3.69462C24.3673 3.37218 26.5523 3.84084 28.3725 5.01292C28.6428 5.1868 28.8484 5.4447 28.9576 5.7469C29.0669 6.04911 29.0738 6.37885 28.9773 6.68536L26.2291 15.742C26.1595 15.9752 26.0337 16.1878 25.8627 16.3609C25.6916 16.534 25.4806 16.6624 25.2482 16.7348L19.8448 18.3453C19.6021 18.4196 19.3825 18.5548 19.207 18.7382C19.0315 18.9216 18.9059 19.1469 18.8423 19.3926V19.3926Z" stroke="#666666" stroke-width="2" stroke-linecap="round" stroke-linejoin="round"/>
<path d="M38.9478 18.2495L43.966 23.7143L38.5012 28.7325" stroke="#666666" stroke-width="2" stroke-linecap="round" stroke-linejoin="round"/>
<path d="M31.3862 23.1786L43.9658 23.7145" stroke="#666666" stroke-width="2" stroke-linecap="round" stroke-linejoin="round"/>
</svg>
