<svg width="48" height="48" viewBox="0 0 48 48" fill="none" xmlns="http://www.w3.org/2000/svg">
<path opacity="0.2" d="M20.25 30C26.4632 30 31.5 24.9632 31.5 18.75C31.5 12.5368 26.4632 7.5 20.25 7.5C14.0368 7.5 9 12.5368 9 18.75C9 24.9632 14.0368 30 20.25 30Z" fill="#666666"/>
<path d="M37.5 25.5H46.5" stroke="#666666" stroke-width="2" stroke-linecap="round" stroke-linejoin="round"/>
<path d="M42 21V30" stroke="#666666" stroke-width="2" stroke-linecap="round" stroke-linejoin="round"/>
<path d="M20.25 30C26.4632 30 31.5 24.9632 31.5 18.75C31.5 12.5368 26.4632 7.5 20.25 7.5C14.0368 7.5 9 12.5368 9 18.75C9 24.9632 14.0368 30 20.25 30Z" stroke="#666666" stroke-width="2" stroke-miterlimit="10"/>
<path d="M4.1626 37.5002C6.1337 35.1509 8.59542 33.2618 11.3747 31.9658C14.154 30.6697 17.1835 29.998 20.2501 29.998C23.3167 29.998 26.3462 30.6697 29.1255 31.9658C31.9048 33.2618 34.3665 35.1509 36.3376 37.5002" stroke="#666666" stroke-width="2" stroke-linecap="round" stroke-linejoin="round"/>
</svg>
