<svg width="25" height="25" viewBox="0 0 25 25" fill="none" xmlns="http://www.w3.org/2000/svg">
<path d="M8.75 15.5C11.4424 15.5 13.625 13.3174 13.625 10.625C13.625 7.93261 11.4424 5.75 8.75 5.75C6.05761 5.75 3.875 7.93261 3.875 10.625C3.875 13.3174 6.05761 15.5 8.75 15.5Z" stroke="#C4C4C4" stroke-width="2" stroke-miterlimit="10"/>
<path d="M15.0687 5.92813C15.4997 5.81124 15.9441 5.75136 16.3906 5.75C17.6835 5.75 18.9235 6.26361 19.8377 7.17785C20.752 8.09209 21.2656 9.33207 21.2656 10.625C21.2656 11.9179 20.752 13.1579 19.8377 14.0721C18.9235 14.9864 17.6835 15.5 16.3906 15.5" stroke="#C4C4C4" stroke-width="2" stroke-linecap="round" stroke-linejoin="round"/>
<path d="M2 19.0061C2.7612 17.9229 3.77191 17.0388 4.94676 16.4285C6.1216 15.8181 7.42608 15.4995 8.75 15.4995C10.0739 15.4995 11.3784 15.8181 12.5532 16.4285C13.7281 17.0388 14.7388 17.9229 15.5 19.0061" stroke="#C4C4C4" stroke-width="2" stroke-linecap="round" stroke-linejoin="round"/>
<path d="M16.3906 15.5C17.7147 15.4992 19.0194 15.8174 20.1944 16.4277C21.3693 17.0381 22.3799 17.9225 23.1406 19.0063" stroke="#C4C4C4" stroke-width="2" stroke-linecap="round" stroke-linejoin="round"/>
</svg>
